<mxfile host="app.diagrams.net" modified="2023-10-04T15:39:49.836Z" agent="Mozilla/5.0 (Windows NT 10.0; Win64; x64) AppleWebKit/537.36 (KHTML, like Gecko) Chrome/117.0.0.0 Safari/537.36" version="22.0.2" etag="amoXWC19uKYIhFv6Wguw" type="github">
  <diagram name="Trang-1" id="k8kYiYwAkAhhZaJ9ZbsG">
    <mxGraphModel>
      <root>
        <mxCell id="0" />
        <mxCell id="1" parent="0" />
      </root>
    </mxGraphModel>
  </diagram>
</mxfile>
